<?xml version="1.0" standalone="no"?>
<!DOCTYPE svg PUBLIC "-//W3C//DTD SVG 20010904//EN"
 "http://www.w3.org/TR/2001/REC-SVG-20010904/DTD/svg10.dtd">
<svg version="1.0" xmlns="http://www.w3.org/2000/svg"
 width="260.000000pt" height="260.000000pt" viewBox="0 0 260.000000 260.000000"
 preserveAspectRatio="xMidYMid meet">
<metadata>
Created by potrace 1.11, written by Peter Selinger 2001-2013
</metadata>
<g transform="translate(0.000000,260.000000) scale(0.100000,-0.100000)"
fill="#000000" stroke="none">
<path d="M1185 2416 c-203 -32 -368 -128 -469 -274 -122 -177 -107 -444 35
-605 106 -121 263 -201 609 -311 339 -108 440 -196 440 -384 0 -84 -14 -129
-59 -188 -87 -114 -273 -164 -495 -133 -235 32 -374 153 -401 347 l-7 52 -135
0 -136 0 6 -68 c22 -263 246 -476 572 -543 124 -26 318 -25 445 1 355 73 550
348 475 668 -23 96 -60 160 -144 243 -103 102 -214 158 -509 256 -264 87 -364
135 -426 204 -70 78 -88 152 -65 261 34 157 192 257 409 258 250 1 415 -108
460 -302 5 -24 10 -58 10 -75 l0 -33 134 0 c74 0 137 3 139 8 10 16 -14 151
-37 209 -89 227 -310 382 -588 412 -118 13 -159 13 -263 -3z"/>
</g>
</svg>
